<?xml version="1.0" encoding="UTF-8" standalone="no"?>
<!DOCTYPE svg PUBLIC "-//W3C//DTD SVG 1.1//EN"
 "http://www.w3.org/Graphics/SVG/1.1/DTD/svg11.dtd">
<!-- Generated by graphviz version 2.36.0 (20140111.2315)
 -->
<!-- Title: G Pages: 1 -->
<svg width="256pt" height="240pt"
 viewBox="0.00 0.00 256.00 240.00" xmlns="http://www.w3.org/2000/svg" xmlns:xlink="http://www.w3.org/1999/xlink">
<g id="graph0" class="graph" transform="scale(1 1) rotate(0) translate(4 236)">
<title>G</title>
<polygon fill="white" stroke="none" points="-4,4 -4,-236 252,-236 252,4 -4,4"/>
<g id="clust1" class="cluster"><title>cluster_Global</title>
<path fill="none" stroke="gray" d="M20,-8C20,-8 228,-8 228,-8 234,-8 240,-14 240,-20 240,-20 240,-212 240,-212 240,-218 234,-224 228,-224 228,-224 20,-224 20,-224 14,-224 8,-218 8,-212 8,-212 8,-20 8,-20 8,-14 14,-8 20,-8"/>
<text text-anchor="middle" x="124" y="-211.2" font-family="Times,serif" font-size="11.00" fill="gray">Global</text>
</g>
<g id="clust2" class="cluster"><title>cluster_\backend</title>
<path fill="none" stroke="gray" d="M28,-16C28,-16 220,-16 220,-16 226,-16 232,-22 232,-28 232,-28 232,-184 232,-184 232,-190 226,-196 220,-196 220,-196 28,-196 28,-196 22,-196 16,-190 16,-184 16,-184 16,-28 16,-28 16,-22 22,-16 28,-16"/>
<text text-anchor="middle" x="124" y="-183.2" font-family="Times,serif" font-size="11.00" fill="gray">backend</text>
</g>
<g id="clust3" class="cluster"><title>cluster_\backend\src</title>
<path fill="none" stroke="gray" d="M36,-24C36,-24 212,-24 212,-24 218,-24 224,-30 224,-36 224,-36 224,-156 224,-156 224,-162 218,-168 212,-168 212,-168 36,-168 36,-168 30,-168 24,-162 24,-156 24,-156 24,-36 24,-36 24,-30 30,-24 36,-24"/>
<text text-anchor="middle" x="124" y="-155.2" font-family="Times,serif" font-size="11.00" fill="gray">src</text>
</g>
<g id="clust4" class="cluster"><title>cluster_\backend\src\Bootstrap</title>
<path fill="none" stroke="gray" d="M44,-32C44,-32 204,-32 204,-32 210,-32 216,-38 216,-44 216,-44 216,-128 216,-128 216,-134 210,-140 204,-140 204,-140 44,-140 44,-140 38,-140 32,-134 32,-128 32,-128 32,-44 32,-44 32,-38 38,-32 44,-32"/>
<text text-anchor="middle" x="124" y="-127.2" font-family="Times,serif" font-size="11.00" fill="gray">Bootstrap</text>
</g>
<g id="clust5" class="cluster"><title>cluster_\backend\src\Bootstrap\Base</title>
<path fill="none" stroke="gray" d="M52,-40C52,-40 196,-40 196,-40 202,-40 208,-46 208,-52 208,-52 208,-100 208,-100 208,-106 202,-112 196,-112 196,-112 52,-112 52,-112 46,-112 40,-106 40,-100 40,-100 40,-52 40,-52 40,-46 46,-40 52,-40"/>
<text text-anchor="middle" x="124" y="-99.2" font-family="Times,serif" font-size="11.00" fill="gray">Base</text>
</g>
<!-- \\backend\\src\\Bootstrap\\Base\\AutoloaderNamespaces -->
<g id="node1" class="node"><title>\\backend\\src\\Bootstrap\\Base\\AutoloaderNamespaces</title>
<polygon fill="none" stroke="black" points="200,-84 48,-84 48,-48 200,-48 200,-84"/>
<text text-anchor="middle" x="124" y="-63.2" font-family="Courier,monospace" font-size="11.00">AutoloaderNamespaces</text>
</g>
</g>
</svg>
