<?xml version="1.0" encoding="UTF-8" standalone="no"?>
<!DOCTYPE svg PUBLIC "-//W3C//DTD SVG 1.1//EN"
 "http://www.w3.org/Graphics/SVG/1.1/DTD/svg11.dtd">
<!-- Generated by graphviz version 2.36.0 (20140111.2315)
 -->
<!-- Title: G Pages: 1 -->
<svg width="534pt" height="534pt"
 viewBox="0.00 0.00 534.00 534.00" xmlns="http://www.w3.org/2000/svg" xmlns:xlink="http://www.w3.org/1999/xlink">
<g id="graph0" class="graph" transform="scale(1 1) rotate(0) translate(4 530)">
<title>G</title>
<polygon fill="white" stroke="none" points="-4,4 -4,-530 530,-530 530,4 -4,4"/>
<g id="clust1" class="cluster"><title>cluster_Global</title>
<path fill="none" stroke="gray" d="M298,-8C298,-8 506,-8 506,-8 512,-8 518,-14 518,-20 518,-20 518,-506 518,-506 518,-512 512,-518 506,-518 506,-518 298,-518 298,-518 292,-518 286,-512 286,-506 286,-506 286,-20 286,-20 286,-14 292,-8 298,-8"/>
<text text-anchor="middle" x="402" y="-505.2" font-family="Times,serif" font-size="11.00" fill="gray">Global</text>
</g>
<g id="clust2" class="cluster"><title>cluster_\Backend</title>
<path fill="none" stroke="gray" d="M306,-16C306,-16 498,-16 498,-16 504,-16 510,-22 510,-28 510,-28 510,-478 510,-478 510,-484 504,-490 498,-490 498,-490 306,-490 306,-490 300,-490 294,-484 294,-478 294,-478 294,-28 294,-28 294,-22 300,-16 306,-16"/>
<text text-anchor="middle" x="402" y="-477.2" font-family="Times,serif" font-size="11.00" fill="gray">Backend</text>
</g>
<g id="clust3" class="cluster"><title>cluster_\Backend\Src</title>
<path fill="none" stroke="gray" d="M314,-24C314,-24 490,-24 490,-24 496,-24 502,-30 502,-36 502,-36 502,-450 502,-450 502,-456 496,-462 490,-462 490,-462 314,-462 314,-462 308,-462 302,-456 302,-450 302,-450 302,-36 302,-36 302,-30 308,-24 314,-24"/>
<text text-anchor="middle" x="402" y="-449.2" font-family="Times,serif" font-size="11.00" fill="gray">Src</text>
</g>
<g id="clust4" class="cluster"><title>cluster_\Backend\Src\Traits</title>
<path fill="none" stroke="gray" d="M367,-362C367,-362 437,-362 437,-362 443,-362 449,-368 449,-374 449,-374 449,-422 449,-422 449,-428 443,-434 437,-434 437,-434 367,-434 367,-434 361,-434 355,-428 355,-422 355,-422 355,-374 355,-374 355,-368 361,-362 367,-362"/>
<text text-anchor="middle" x="402" y="-421.2" font-family="Times,serif" font-size="11.00" fill="gray">Traits</text>
</g>
<g id="clust5" class="cluster"><title>cluster_\Backend\Src\Bootstrap</title>
<path fill="none" stroke="gray" d="M322,-112C322,-112 482,-112 482,-112 488,-112 494,-118 494,-124 494,-124 494,-342 494,-342 494,-348 488,-354 482,-354 482,-354 322,-354 322,-354 316,-354 310,-348 310,-342 310,-342 310,-124 310,-124 310,-118 316,-112 322,-112"/>
<text text-anchor="middle" x="402" y="-341.2" font-family="Times,serif" font-size="11.00" fill="gray">Bootstrap</text>
</g>
<g id="clust6" class="cluster"><title>cluster_\Backend\Src\Bootstrap\Classes</title>
<path fill="none" stroke="gray" d="M364,-200C364,-200 440,-200 440,-200 446,-200 452,-206 452,-212 452,-212 452,-314 452,-314 452,-320 446,-326 440,-326 440,-326 364,-326 364,-326 358,-326 352,-320 352,-314 352,-314 352,-212 352,-212 352,-206 358,-200 364,-200"/>
<text text-anchor="middle" x="402" y="-313.2" font-family="Times,serif" font-size="11.00" fill="gray">Classes</text>
</g>
<g id="clust7" class="cluster"><title>cluster_\Backend\Src\Bootstrap\Base</title>
<path fill="none" stroke="gray" d="M330,-120C330,-120 474,-120 474,-120 480,-120 486,-126 486,-132 486,-132 486,-180 486,-180 486,-186 480,-192 474,-192 474,-192 330,-192 330,-192 324,-192 318,-186 318,-180 318,-180 318,-132 318,-132 318,-126 324,-120 330,-120"/>
<text text-anchor="middle" x="402" y="-179.2" font-family="Times,serif" font-size="11.00" fill="gray">Base</text>
</g>
<g id="clust8" class="cluster"><title>cluster_\Backend\Src\Tests</title>
<path fill="none" stroke="gray" d="M350,-32C350,-32 454,-32 454,-32 460,-32 466,-38 466,-44 466,-44 466,-92 466,-92 466,-98 460,-104 454,-104 454,-104 350,-104 350,-104 344,-104 338,-98 338,-92 338,-92 338,-44 338,-44 338,-38 344,-32 350,-32"/>
<text text-anchor="middle" x="402" y="-91.2" font-family="Times,serif" font-size="11.00" fill="gray">Tests</text>
</g>
<!-- \\Backend\\Src\\Traits\\Singleton -->
<g id="node1" class="node"><title>\\Backend\\Src\\Traits\\Singleton</title>
<polygon fill="none" stroke="black" points="440.5,-406 363.5,-406 363.5,-370 440.5,-370 440.5,-406"/>
<text text-anchor="middle" x="402" y="-385.2" font-family="Courier,monospace" font-size="11.00">Singleton</text>
</g>
<!-- \\Backend\\Src\\Bootstrap\\Classes\\Request -->
<g id="node2" class="node"><title>\\Backend\\Src\\Bootstrap\\Classes\\Request</title>
<polygon fill="none" stroke="black" points="434,-298 370,-298 370,-262 434,-262 434,-298"/>
<text text-anchor="middle" x="402" y="-277.2" font-family="Courier,monospace" font-size="11.00">Request</text>
</g>
<!-- \\Backend\\Src\\Bootstrap\\Classes\\Autoloader -->
<g id="node3" class="node"><title>\\Backend\\Src\\Bootstrap\\Classes\\Autoloader</title>
<polygon fill="none" stroke="black" points="444,-244 360,-244 360,-208 444,-208 444,-244"/>
<text text-anchor="middle" x="402" y="-223.2" font-family="Courier,monospace" font-size="11.00">Autoloader</text>
</g>
<!-- \\Backend\\Src\\Bootstrap\\Base\\AutoloaderNamespaces -->
<g id="node4" class="node"><title>\\Backend\\Src\\Bootstrap\\Base\\AutoloaderNamespaces</title>
<polygon fill="none" stroke="black" points="478,-164 326,-164 326,-128 478,-128 478,-164"/>
<text text-anchor="middle" x="402" y="-143.2" font-family="Courier,monospace" font-size="11.00">AutoloaderNamespaces</text>
</g>
<!-- \\Backend\\Src\\Tests\\AutoloaderTest -->
<g id="node5" class="node"><title>\\Backend\\Src\\Tests\\AutoloaderTest</title>
<polygon fill="none" stroke="black" points="457.5,-76 346.5,-76 346.5,-40 457.5,-40 457.5,-76"/>
<text text-anchor="middle" x="402" y="-55.2" font-family="Courier,monospace" font-size="11.00">AutoloaderTest</text>
</g>
<!-- \\PHPUnit_Framework_TestCase -->
<g id="node6" class="node"><title>\\PHPUnit_Framework_TestCase</title>
<ellipse fill="none" stroke="black" cx="127" cy="-58" rx="126.978" ry="18"/>
<text text-anchor="middle" x="127" y="-54.3" font-family="Times,serif" font-size="14.00" fill="gray">\PHPUnit_Framework_TestCase</text>
</g>
<!-- \\Backend\\Src\\Tests\\AutoloaderTest&#45;&gt;\\PHPUnit_Framework_TestCase -->
<g id="edge1" class="edge"><title>\\Backend\\Src\\Tests\\AutoloaderTest&#45;&gt;\\PHPUnit_Framework_TestCase</title>
<path fill="none" stroke="black" d="M346.411,-58C322.539,-58 293.364,-58 264.207,-58"/>
<polygon fill="none" stroke="black" points="263.904,-54.5001 253.903,-58 263.903,-61.5001 263.904,-54.5001"/>
</g>
</g>
</svg>
